<svg width="886" height="230" viewBox="0 0 886 230" fill="none" xmlns="http://www.w3.org/2000/svg">
<g clip-path="url(#clip0_1_1209)">
<mask id="mask0_1_1209" style="mask-type:alpha" maskUnits="userSpaceOnUse" x="0" y="0" width="886" height="230">
<path fill-rule="evenodd" clip-rule="evenodd" d="M730.258 12.6261C730.258 5.6529 724.575 0 717.563 0H168.433C161.424 0 155.742 5.6529 155.742 12.6261C155.742 19.5993 150.06 25.2522 143.051 25.2522H13.8438C6.19806 25.2522 0 31.4183 0 39.0247V216.228C0 223.834 6.19806 230 13.8438 230H872.156C879.805 230 886 223.834 886 216.228V39.0247C886 31.4183 879.805 25.2522 872.156 25.2522H742.953C735.941 25.2522 730.258 19.5993 730.258 12.6261Z" fill="url(#paint0_linear_1_1209)"/>
</mask>
<g mask="url(#mask0_1_1209)">
<path fill-rule="evenodd" clip-rule="evenodd" d="M730.258 12.6261C730.258 5.6529 724.575 0 717.563 0H168.433C161.424 0 155.742 5.6529 155.742 12.6261C155.742 19.5993 150.06 25.2522 143.051 25.2522H13.8438C6.19806 25.2522 0 31.4183 0 39.0247V216.228C0 223.834 6.19806 230 13.8438 230H872.156C879.805 230 886 223.834 886 216.228V39.0247C886 31.4183 879.805 25.2522 872.156 25.2522H742.953C735.941 25.2522 730.258 19.5993 730.258 12.6261Z" fill="url(#paint1_linear_1_1209)"/>
<path opacity="0.1" d="M944.836 188.683C944.836 243.448 900.211 287.844 845.161 287.844C790.111 287.844 745.486 243.448 745.486 188.683C745.486 133.917 790.111 89.521 845.161 89.521C900.211 89.521 944.836 133.917 944.836 188.683ZM792.188 188.683C792.188 217.787 815.909 241.381 845.161 241.381C874.413 241.381 898.134 217.787 898.134 188.683C898.134 159.578 874.413 135.984 845.161 135.984C815.909 135.984 792.188 159.578 792.188 188.683Z" fill="white"/>
<path opacity="0.2" d="M189.659 34.4312C189.659 -34.7863 133.257 -90.8982 63.6813 -90.8982C-5.89455 -90.8982 -62.2969 -34.7863 -62.2969 34.4312C-62.2969 103.649 -5.89455 159.76 63.6813 159.76C133.257 159.76 189.659 103.649 189.659 34.4312ZM-3.26846 34.4312C-3.26846 -2.35373 26.706 -32.1738 63.6813 -32.1738C100.657 -32.1738 130.631 -2.35373 130.631 34.4312C130.631 71.216 100.657 101.036 63.6813 101.036C26.706 101.036 -3.26846 71.216 -3.26846 34.4312Z" fill="url(#paint2_linear_1_1209)"/>
</g>
</g>
<defs>
<linearGradient id="paint0_linear_1_1209" x1="886" y1="230" x2="162.086" y2="-246.333" gradientUnits="userSpaceOnUse">
<stop stop-color="#00796D"/>
<stop offset="1" stop-color="#38C682"/>
</linearGradient>
<linearGradient id="paint1_linear_1_1209" x1="887.703" y1="216.857" x2="140.064" y2="-232.854" gradientUnits="userSpaceOnUse">
<stop stop-color="#00796D"/>
<stop offset="1" stop-color="#38C682"/>
</linearGradient>
<linearGradient id="paint2_linear_1_1209" x1="63.6813" y1="159.76" x2="63.6813" y2="-90.8982" gradientUnits="userSpaceOnUse">
<stop stop-color="white"/>
<stop offset="1" stop-color="white" stop-opacity="0"/>
</linearGradient>
<clipPath id="clip0_1_1209">
<rect width="886" height="230" fill="white"/>
</clipPath>
</defs>
</svg>
