<svg width="75" height="75" viewBox="0 0 75 75" fill="none" xmlns="http://www.w3.org/2000/svg">
<rect x="0.787964" y="0.689331" width="73.9241" height="73.9241" rx="36.9621" fill="url(#paint0_linear_1_1182)"/>
<rect x="8.3173" y="8.21866" width="58.8655" height="58.8655" rx="29.4328" fill="white"/>
<path d="M33.3009 22.8209C29.4153 22.8209 26.2564 25.9798 26.2564 29.8654C26.2564 33.6768 29.2373 36.7616 33.1229 36.895C33.2416 36.8802 33.3602 36.8802 33.4492 36.895C33.4788 36.895 33.4937 36.895 33.5233 36.895C33.5382 36.895 33.5382 36.895 33.553 36.895C37.3496 36.7616 40.3305 33.6768 40.3453 29.8654C40.3453 25.9798 37.1865 22.8209 33.3009 22.8209Z" fill="url(#paint1_linear_1_1182)"/>
<path d="M40.8347 40.8399C36.697 38.0815 29.9492 38.0815 25.7818 40.8399C23.8984 42.1005 22.8602 43.806 22.8602 45.6302C22.8602 47.4543 23.8984 49.145 25.767 50.3907C27.8433 51.7848 30.5721 52.4818 33.3009 52.4818C36.0297 52.4818 38.7585 51.7848 40.8347 50.3907C42.7034 49.1302 43.7415 47.4395 43.7415 45.6005C43.7267 43.7764 42.7034 42.0857 40.8347 40.8399Z" fill="url(#paint2_linear_1_1182)"/>
<path d="M49.5995 30.7404C49.8368 33.6175 47.7902 36.1387 44.9576 36.4798C44.9428 36.4798 44.9428 36.4798 44.928 36.4798H44.8835C44.7945 36.4798 44.7055 36.4798 44.6313 36.5094C43.1928 36.5836 41.8729 36.1238 40.8792 35.2785C42.4068 33.9141 43.2818 31.8675 43.1038 29.6429C43 28.4417 42.5847 27.3442 41.9619 26.4099C42.5254 26.1281 43.178 25.9502 43.8453 25.8908C46.7521 25.6387 49.3474 27.804 49.5995 30.7404Z" fill="url(#paint3_linear_1_1182)"/>
<path d="M52.5656 44.4586C52.447 45.8971 51.5275 47.1429 49.9851 47.9882C48.5021 48.8039 46.6335 49.1895 44.7796 49.145C45.8474 48.181 46.4703 46.9797 46.589 45.7043C46.7373 43.8653 45.8623 42.1005 44.1123 40.6916C43.1186 39.9056 41.9619 39.2827 40.7013 38.823C43.9788 37.8738 48.1017 38.5116 50.6377 40.5582C52.0021 41.6556 52.6991 43.0348 52.5656 44.4586Z" fill="url(#paint4_linear_1_1182)"/>
<rect x="8.3173" y="8.21866" width="58.8655" height="58.8655" rx="29.4328" stroke="url(#paint5_linear_1_1182)" stroke-width="1.36897"/>
<defs>
<linearGradient id="paint0_linear_1_1182" x1="0.787964" y1="37.3123" x2="74.7121" y2="37.3123" gradientUnits="userSpaceOnUse">
<stop stop-color="white"/>
<stop offset="1" stop-color="white" stop-opacity="0"/>
</linearGradient>
<linearGradient id="paint1_linear_1_1182" x1="52.5818" y1="52.4818" x2="18.7739" y2="46.6952" gradientUnits="userSpaceOnUse">
<stop stop-color="#00796D"/>
<stop offset="1" stop-color="#38C682"/>
</linearGradient>
<linearGradient id="paint2_linear_1_1182" x1="52.5818" y1="52.4818" x2="18.7739" y2="46.6952" gradientUnits="userSpaceOnUse">
<stop stop-color="#00796D"/>
<stop offset="1" stop-color="#38C682"/>
</linearGradient>
<linearGradient id="paint3_linear_1_1182" x1="52.5818" y1="52.4818" x2="18.7739" y2="46.6952" gradientUnits="userSpaceOnUse">
<stop stop-color="#00796D"/>
<stop offset="1" stop-color="#38C682"/>
</linearGradient>
<linearGradient id="paint4_linear_1_1182" x1="52.5818" y1="52.4818" x2="18.7739" y2="46.6952" gradientUnits="userSpaceOnUse">
<stop stop-color="#00796D"/>
<stop offset="1" stop-color="#38C682"/>
</linearGradient>
<linearGradient id="paint5_linear_1_1182" x1="67.8673" y1="67.7687" x2="-0.65664" y2="56.064" gradientUnits="userSpaceOnUse">
<stop stop-color="#00796D"/>
<stop offset="1" stop-color="#38C682"/>
</linearGradient>
</defs>
</svg>
