<svg width="75" height="75" viewBox="0 0 75 75" fill="none" xmlns="http://www.w3.org/2000/svg">
<rect x="0.287903" y="0.689331" width="73.9241" height="73.9241" rx="36.9621" fill="url(#paint0_linear_1_1173)"/>
<rect x="7.81723" y="8.21866" width="58.8655" height="58.8655" rx="29.4328" fill="white"/>
<path d="M43.4639 22.8209H31.036C25.6377 22.8209 22.4195 26.0391 22.4195 31.4374V43.8505C22.4195 49.2636 25.6377 52.4818 31.036 52.4818H43.4491C48.8474 52.4818 52.0656 49.2636 52.0656 43.8653V31.4374C52.0804 26.0391 48.8622 22.8209 43.4639 22.8209ZM36.5529 39.9204L31.036 45.4374H34.2839C34.8919 45.4374 35.3961 45.9416 35.3961 46.5497C35.3961 47.1577 34.8919 47.6619 34.2839 47.6619H28.3517C28.2034 47.6619 28.0551 47.6323 27.9216 47.573C27.6546 47.4543 27.4322 47.2467 27.3135 46.9649C27.2691 46.8314 27.2394 46.698 27.2394 46.5497V40.6175C27.2394 40.0094 27.7436 39.5052 28.3517 39.5052C28.9597 39.5052 29.464 40.0094 29.464 40.6175V43.8653L34.9809 38.3484C35.411 37.9183 36.1228 37.9183 36.5529 38.3484C36.983 38.7785 36.983 39.4904 36.5529 39.9204ZM47.2605 34.6853C47.2605 35.2933 46.7563 35.7976 46.1482 35.7976C45.5402 35.7976 45.0359 35.2933 45.0359 34.6853V31.4374L39.519 36.9544C39.2966 37.1768 39.0148 37.2806 38.733 37.2806C38.4512 37.2806 38.1694 37.1768 37.947 36.9544C37.5169 36.5243 37.5169 35.8124 37.947 35.3823L43.4639 29.8654H40.216C39.608 29.8654 39.1038 29.3612 39.1038 28.7531C39.1038 28.1451 39.608 27.6408 40.216 27.6408H46.1482C46.2965 27.6408 46.43 27.6705 46.5783 27.7298C46.8453 27.8484 47.0677 28.0561 47.1864 28.3379C47.2309 28.4713 47.2605 28.6048 47.2605 28.7531V34.6853Z" fill="url(#paint1_linear_1_1173)"/>
<rect x="7.81723" y="8.21866" width="58.8655" height="58.8655" rx="29.4328" stroke="url(#paint2_linear_1_1173)" stroke-width="1.36897"/>
<defs>
<linearGradient id="paint0_linear_1_1173" x1="0.287903" y1="37.3123" x2="74.212" y2="37.3123" gradientUnits="userSpaceOnUse">
<stop stop-color="white"/>
<stop offset="1" stop-color="white" stop-opacity="0"/>
</linearGradient>
<linearGradient id="paint1_linear_1_1173" x1="52.0656" y1="52.4818" x2="18.3386" y2="46.7238" gradientUnits="userSpaceOnUse">
<stop stop-color="#00796D"/>
<stop offset="1" stop-color="#38C682"/>
</linearGradient>
<linearGradient id="paint2_linear_1_1173" x1="67.3672" y1="67.7687" x2="-1.1567" y2="56.064" gradientUnits="userSpaceOnUse">
<stop stop-color="#00796D"/>
<stop offset="1" stop-color="#38C682"/>
</linearGradient>
</defs>
</svg>
