<svg width="75" height="75" viewBox="0 0 75 75" fill="none" xmlns="http://www.w3.org/2000/svg">
<rect x="0.287964" y="0.689331" width="73.9241" height="73.9241" rx="36.9621" fill="url(#paint0_linear_1_1179)"/>
<rect x="7.8173" y="8.21866" width="58.8655" height="58.8655" rx="29.4328" fill="white"/>
<path d="M27.9662 43.5836C28.1294 42.8569 27.8328 41.8187 27.3137 41.2997L23.7099 37.6959C22.5828 36.5688 22.1379 35.3675 22.4641 34.3294C22.8052 33.2912 23.8582 32.5794 25.4302 32.3124L30.0573 31.5412C30.7247 31.4226 31.5404 30.8294 31.8518 30.2213L34.4026 25.1048C35.1442 23.6366 36.1526 22.8209 37.2501 22.8209C38.3475 22.8209 39.356 23.6366 40.0975 25.1048L42.6484 30.2213C42.8412 30.6069 43.2416 30.9777 43.6717 31.2298L27.6993 47.2022C27.4917 47.4098 27.1357 47.217 27.195 46.9204L27.9662 43.5836Z" fill="url(#paint1_linear_1_1179)"/>
<path d="M47.1865 41.2997C46.6526 41.8336 46.356 42.8569 46.534 43.5836L47.5573 48.0475C47.9873 49.9013 47.7204 51.2954 46.8009 51.9628C46.4302 52.2297 45.9852 52.3632 45.4662 52.3632C44.7098 52.3632 43.82 52.0814 42.8412 51.503L38.4959 48.9225C37.8137 48.5221 36.6865 48.5221 36.0043 48.9225L31.659 51.503C30.0128 52.467 28.6039 52.6301 27.6993 51.9628C27.3582 51.7107 27.1061 51.3696 26.9429 50.9246L44.9768 32.8908C45.659 32.2086 46.6229 31.8972 47.5573 32.0603L49.0551 32.3124C50.6272 32.5794 51.6801 33.2912 52.0212 34.3294C52.3475 35.3675 51.9026 36.5688 50.7755 37.6959L47.1865 41.2997Z" fill="url(#paint2_linear_1_1179)"/>
<rect x="7.8173" y="8.21866" width="58.8655" height="58.8655" rx="29.4328" stroke="url(#paint3_linear_1_1179)" stroke-width="1.36897"/>
<defs>
<linearGradient id="paint0_linear_1_1179" x1="0.287964" y1="37.3123" x2="74.2121" y2="37.3123" gradientUnits="userSpaceOnUse">
<stop stop-color="white"/>
<stop offset="1" stop-color="white" stop-opacity="0"/>
</linearGradient>
<linearGradient id="paint1_linear_1_1179" x1="52.1256" y1="52.3669" x2="18.2777" y2="46.5423" gradientUnits="userSpaceOnUse">
<stop stop-color="#00796D"/>
<stop offset="1" stop-color="#38C682"/>
</linearGradient>
<linearGradient id="paint2_linear_1_1179" x1="52.1256" y1="52.3669" x2="18.2777" y2="46.5423" gradientUnits="userSpaceOnUse">
<stop stop-color="#00796D"/>
<stop offset="1" stop-color="#38C682"/>
</linearGradient>
<linearGradient id="paint3_linear_1_1179" x1="67.3673" y1="67.7687" x2="-1.15664" y2="56.064" gradientUnits="userSpaceOnUse">
<stop stop-color="#00796D"/>
<stop offset="1" stop-color="#38C682"/>
</linearGradient>
</defs>
</svg>
