<svg width="75" height="75" viewBox="0 0 75 75" fill="none" xmlns="http://www.w3.org/2000/svg">
<rect x="0.787964" y="0.689331" width="73.9241" height="73.9241" rx="36.9621" fill="url(#paint0_linear_1_1176)"/>
<rect x="8.3173" y="8.21866" width="58.8655" height="58.8655" rx="29.4328" fill="white"/>
<path d="M37.6611 23.1325L34.0869 31.4523H30.5128C29.9196 31.4523 29.3412 31.4968 28.7776 31.6155L30.2607 28.0562L30.32 27.9227L30.409 27.6854C30.4535 27.5816 30.4831 27.4926 30.5276 27.4185C32.2479 23.4291 34.1759 22.1833 37.6611 23.1325Z" fill="url(#paint1_linear_1_1176)"/>
<path d="M47.7309 31.8528L47.7013 31.8379C46.8115 31.5858 45.9068 31.4523 44.9873 31.4523H35.7034L39.0403 23.696L39.0848 23.5922C39.2924 23.6664 39.5149 23.7702 39.7373 23.8443L43.0149 25.2235C44.839 25.9799 46.1144 26.7659 46.9004 27.7151C47.0339 27.893 47.1526 28.0562 47.2712 28.249C47.4047 28.4566 47.5085 28.6642 47.5678 28.8867C47.6271 29.0201 47.6716 29.1388 47.7013 29.2723C47.9237 30.0286 47.9386 30.8888 47.7309 31.8528Z" fill="url(#paint2_linear_1_1176)"/>
<path d="M38.5212 46.0455H38.892C39.3369 46.0455 39.7077 45.6451 39.7077 45.1557C39.7077 44.5328 39.5297 44.4438 39.1441 44.2955L38.5212 44.0731V46.0455Z" fill="url(#paint3_linear_1_1176)"/>
<path d="M47.0784 33.9735C46.411 33.7807 45.714 33.6769 44.9873 33.6769H30.5128C29.5043 33.6769 28.5552 33.8697 27.6653 34.2553C25.0848 35.3676 23.2755 37.9333 23.2755 40.9142V43.8061C23.2755 44.162 23.3052 44.5031 23.3497 44.8591C23.6759 49.5752 26.1971 52.0963 30.9132 52.4078C31.2543 52.4523 31.5954 52.4819 31.9662 52.4819H43.5339C49.0212 52.4819 51.9131 49.8718 52.1949 44.6811C52.2097 44.3993 52.2246 44.1027 52.2246 43.8061V40.9142C52.2246 37.6366 50.0445 34.8782 47.0784 33.9735ZM39.6483 42.8421C40.3305 43.0794 41.25 43.5837 41.25 45.1557C41.25 46.5053 40.1971 47.5879 38.892 47.5879H38.5212V47.9142C38.5212 48.3442 38.1801 48.6853 37.75 48.6853C37.32 48.6853 36.9789 48.3442 36.9789 47.9142V47.5879H36.8454C35.4217 47.5879 34.2501 46.3866 34.2501 44.9036C34.2501 44.4735 34.5912 44.1324 35.0212 44.1324C35.4513 44.1324 35.7924 44.4735 35.7924 44.9036C35.7924 45.5264 36.267 46.0455 36.8454 46.0455H36.9789V43.5392L35.8517 43.1387C35.1695 42.9015 34.2501 42.3972 34.2501 40.8252C34.2501 39.4756 35.303 38.393 36.6081 38.393H36.9789V38.0667C36.9789 37.6366 37.32 37.2955 37.75 37.2955C38.1801 37.2955 38.5212 37.6366 38.5212 38.0667V38.393H38.6547C40.0784 38.393 41.25 39.5943 41.25 41.0773C41.25 41.5074 40.9089 41.8485 40.4788 41.8485C40.0488 41.8485 39.7077 41.5074 39.7077 41.0773C39.7077 40.4544 39.2331 39.9354 38.6547 39.9354H38.5212V42.4417L39.6483 42.8421Z" fill="url(#paint4_linear_1_1176)"/>
<path d="M35.7924 40.8252C35.7924 41.4481 35.9704 41.5371 36.356 41.6854L36.9789 41.9078V39.9354H36.6081C36.1484 39.9354 35.7924 40.3358 35.7924 40.8252Z" fill="url(#paint5_linear_1_1176)"/>
<rect x="8.3173" y="8.21866" width="58.8655" height="58.8655" rx="29.4328" stroke="url(#paint6_linear_1_1176)" stroke-width="1.36897"/>
<defs>
<linearGradient id="paint0_linear_1_1176" x1="0.787964" y1="37.3123" x2="74.7121" y2="37.3123" gradientUnits="userSpaceOnUse">
<stop stop-color="white"/>
<stop offset="1" stop-color="white" stop-opacity="0"/>
</linearGradient>
<linearGradient id="paint1_linear_1_1176" x1="52.2246" y1="52.4819" x2="19.2478" y2="46.9826" gradientUnits="userSpaceOnUse">
<stop stop-color="#00796D"/>
<stop offset="1" stop-color="#38C682"/>
</linearGradient>
<linearGradient id="paint2_linear_1_1176" x1="52.2246" y1="52.4819" x2="19.2478" y2="46.9826" gradientUnits="userSpaceOnUse">
<stop stop-color="#00796D"/>
<stop offset="1" stop-color="#38C682"/>
</linearGradient>
<linearGradient id="paint3_linear_1_1176" x1="52.2246" y1="52.4819" x2="19.2478" y2="46.9826" gradientUnits="userSpaceOnUse">
<stop stop-color="#00796D"/>
<stop offset="1" stop-color="#38C682"/>
</linearGradient>
<linearGradient id="paint4_linear_1_1176" x1="52.2246" y1="52.4819" x2="19.2478" y2="46.9826" gradientUnits="userSpaceOnUse">
<stop stop-color="#00796D"/>
<stop offset="1" stop-color="#38C682"/>
</linearGradient>
<linearGradient id="paint5_linear_1_1176" x1="52.2246" y1="52.4819" x2="19.2478" y2="46.9826" gradientUnits="userSpaceOnUse">
<stop stop-color="#00796D"/>
<stop offset="1" stop-color="#38C682"/>
</linearGradient>
<linearGradient id="paint6_linear_1_1176" x1="67.8673" y1="67.7687" x2="-0.65664" y2="56.064" gradientUnits="userSpaceOnUse">
<stop stop-color="#00796D"/>
<stop offset="1" stop-color="#38C682"/>
</linearGradient>
</defs>
</svg>
