<svg width="1000" height="795" viewBox="0 0 1000 795" fill="none" xmlns="http://www.w3.org/2000/svg">
<g clip-path="url(#clip0_83_575)">
<path d="M1.05208 794.55L1.05205 0.900144M125.885 794.55L125.885 0.900144M250.717 794.55L250.717 0.900144M375.55 794.55L375.55 0.900144M500.382 794.55L500.382 0.900144M625.215 794.55L625.215 0.900144M750.047 794.55L750.047 0.900144M874.88 794.55L874.88 0.900144M999.712 794.55L999.712 0.900144M0.712402 23.0906H999.373M0.712402 147.952L999.373 147.952M0.712402 272.813L999.373 272.813M0.712402 397.675L999.373 397.675M0.712402 522.536L999.373 522.536M0.712402 647.397L999.373 647.397M0.712402 772.259L999.373 772.259" stroke="url(#paint0_linear_83_575)" stroke-opacity="0.3" stroke-width="0.69375"/>
<path opacity="0.2" d="M-12.2133 182.332C47.3157 218.65 125.015 199.834 161.332 140.305C197.65 80.7758 178.834 3.07671 119.305 -33.241C59.7758 -69.5587 -17.9232 -50.7423 -54.2409 8.7867C-90.5586 68.3157 -71.7422 146.015 -12.2133 182.332ZM88.4927 17.2636C120.129 36.5643 130.128 77.8566 110.828 109.493C91.5272 141.129 50.2349 151.128 18.5988 131.828C-13.0372 112.527 -23.037 71.2348 -3.73631 39.5988C15.5643 7.96278 56.8567 -2.03701 88.4927 17.2636Z" fill="url(#paint1_linear_83_575)"/>
<path opacity="0.2" d="M869.474 1009.61C948.889 1058.06 1052.54 1032.95 1100.99 953.539C1149.44 874.124 1124.34 770.47 1044.93 722.02C965.512 673.57 861.857 698.672 813.407 778.087C764.957 857.502 790.06 961.157 869.474 1009.61ZM1003.82 789.396C1046.03 815.144 1059.37 870.23 1033.62 912.434C1007.87 954.638 952.784 967.979 910.579 942.231C868.375 916.482 855.035 861.396 880.783 819.192C906.531 776.988 961.617 763.648 1003.82 789.396Z" fill="url(#paint2_linear_83_575)"/>
</g>
<defs>
<linearGradient id="paint0_linear_83_575" x1="425.582" y1="-65.6999" x2="320.203" y2="753.29" gradientUnits="userSpaceOnUse">
<stop stop-color="white"/>
<stop offset="1" stop-color="white" stop-opacity="0"/>
</linearGradient>
<linearGradient id="paint1_linear_83_575" x1="-54.2409" y1="8.7867" x2="161.332" y2="140.305" gradientUnits="userSpaceOnUse">
<stop stop-color="white"/>
<stop offset="1" stop-color="white" stop-opacity="0"/>
</linearGradient>
<linearGradient id="paint2_linear_83_575" x1="1188.43" y1="1015.6" x2="725.681" y2="749.056" gradientUnits="userSpaceOnUse">
<stop stop-color="white"/>
<stop offset="1" stop-color="white" stop-opacity="0"/>
</linearGradient>
<clipPath id="clip0_83_575">
<rect width="999" height="793.65" fill="white" transform="translate(0.712402 0.900146)"/>
</clipPath>
</defs>
</svg>
